<?xml version="1.0" encoding="utf-8"?>
<!-- Generator: Adobe Illustrator 27.5.0, SVG Export Plug-In . SVG Version: 6.00 Build 0)  -->
<svg version="1.1" id="Layer_1" xmlns="http://www.w3.org/2000/svg" xmlns:xlink="http://www.w3.org/1999/xlink" x="0px" y="0px"
	 viewBox="0 0 240 234" style="enable-background:new 0 0 240 234;" xml:space="preserve">
<style type="text/css">
	.st0{clip-path:url(#SVGID_00000105420157142161812940000008429527905194598838_);}
	.st1{fill:#330000;}
	.st2{fill:#FF9A00;}
	.st3{fill:#FFFFFF;}
</style>
<g>
	<defs>
		<rect id="SVGID_1_" width="240" height="234"/>
	</defs>
	<clipPath id="SVGID_00000137091095700348602660000013733790852918098578_">
		<use xlink:href="#SVGID_1_"  style="overflow:visible;"/>
	</clipPath>
	<g style="clip-path:url(#SVGID_00000137091095700348602660000013733790852918098578_);">
		<path class="st1" d="M42.5,0h155C221,0,240,19,240,42.5v149c0,23.5-19,42.5-42.5,42.5h-155C19,234,0,215,0,191.5v-149
			C0,19,19,0,42.5,0z"/>
		<path class="st2" d="M116,140H78.8l-7.6,23.5c-0.2,0.9-1,1.5-1.9,1.4H50.5c-1.1,0-1.4-0.6-1.1-1.8l32.2-92.7c0.3-1,0.6-2.1,1-3.3
			c0.4-2.1,0.6-4.3,0.6-6.5c-0.1-0.5,0.3-1,0.8-1.1h25.9c0.8,0,1.2,0.3,1.3,0.8l36.5,103c0.3,1.1,0,1.6-1,1.6h-20.9
			c-0.7,0.1-1.4-0.4-1.6-1.1L116,140z M84.6,119.7H110c-0.6-2.1-1.4-4.6-2.3-7.2c-0.9-2.7-1.8-5.6-2.7-8.6c-1-3.1-1.9-6.1-2.9-9.2
			s-1.9-6-2.7-8.9c-0.8-2.8-1.5-5.4-2.2-7.8H97c-0.9,4.3-2,8.6-3.4,12.9c-1.5,4.8-3,9.8-4.6,14.8C87.6,110.8,86.1,115.5,84.6,119.7z
			 M170,77c-3.3,0.1-6.5-1.2-8.9-3.5c-2.3-2.5-3.5-5.8-3.4-9.2c-0.1-3.4,1.2-6.6,3.6-8.9c2.4-2.3,5.6-3.5,8.9-3.5
			c3.9,0,6.9,1.2,9.1,3.5c2.2,2.4,3.4,5.6,3.3,8.9c0.1,3.4-1.1,6.7-3.5,9.2C176.8,75.9,173.4,77.2,170,77z M158.8,163.8v-77
			c0-1,0.4-1.4,1.3-1.4h19.8c0.9,0,1.3,0.5,1.3,1.4v77c0,1.1-0.4,1.6-1.3,1.6h-19.6C159.3,165.4,158.8,164.8,158.8,163.8z"/>
		<rect x="40" y="45" class="st1" width="171" height="145"/>
		<path class="st3" d="M107.3,128.1c0-4,0.7-7.4,2-10c1.4-2.7,3-4.8,4.9-6.3c1.9-1.5,4.5-3.2,7.6-5c2.4-1.3,4.2-2.5,5.5-3.4
			c1.3-1,2.4-2.1,3.3-3.5c0.9-1.5,1.3-3.2,1.3-5.3c0-2.1-0.4-3.9-1.3-5.4c-0.8-1.6-1.9-2.8-3.4-3.5c-1.5-0.8-3.2-1.2-5-1.2
			c-3.2,0-5.6,1.1-7.5,3.3c-1.8,2.2-2.8,5-2.8,8.4H89.3c0-5.6,1.3-10.5,3.9-14.8c2.6-4.3,6.4-7.6,11.4-9.8c5-2.4,10.9-3.5,17.6-3.5
			c6.7,0,12.4,1.1,17.3,3.4c4.9,2.2,8.7,5.2,11.3,9.1s3.9,8.2,3.9,13c0,3.8-0.7,6.9-2.1,9.5s-3.1,4.6-5,6c-1.9,1.4-4.5,3-7.7,4.9
			c-2.7,1.4-4.9,2.7-6.4,3.8c-1.6,1.1-2.9,2.6-3.9,4.3c-1.1,1.7-1.6,3.7-1.6,6.2H107.3z M104.9,137.1h25.5V162h-25.5V137.1z"/>
	</g>
</g>
</svg>
