<svg width="271" height="271" viewBox="0 0 271 271" fill="none" xmlns="http://www.w3.org/2000/svg">
<rect width="271" height="271" rx="47" fill="white"/>
<path d="M158.518 134.527C158.518 134.314 158.518 134.114 158.518 133.9C158.518 133.887 158.518 133.873 158.518 133.847C158.384 128.843 157.423 124.333 155.609 120.317C154.261 117.328 152.513 114.793 150.392 112.711C150.338 112.658 150.298 112.618 150.245 112.578C150.111 112.444 149.965 112.311 149.831 112.177C149.698 112.057 149.578 111.951 149.444 111.831C149.378 111.777 149.311 111.71 149.244 111.657C148.617 111.123 147.963 110.616 147.283 110.149C143.72 107.721 139.61 106.507 134.954 106.52C130.284 106.52 126.174 107.761 122.638 110.216C119.089 112.671 116.353 116.034 114.432 120.357C112.551 124.6 111.59 129.377 111.577 134.714C111.577 134.807 111.577 134.887 111.577 134.981C111.577 134.981 111.577 135.008 111.577 135.021C111.577 135.021 111.577 135.061 111.577 135.074C111.577 139.744 112.297 143.987 113.738 147.804C113.738 147.804 113.738 147.777 113.738 147.763C113.738 147.79 113.752 147.817 113.765 147.844C115.059 139.531 119.476 132.619 125.413 129.07C125.453 129.043 125.48 129.03 125.52 129.003C125.574 128.963 125.64 128.936 125.694 128.896C128.376 127.362 131.364 126.495 134.527 126.495C145.348 126.495 154.275 136.609 155.582 149.685C155.582 149.672 155.595 149.645 155.609 149.618C155.609 149.618 155.609 149.605 155.609 149.591C155.609 149.591 155.609 149.591 155.609 149.605C155.609 149.591 155.622 149.565 155.636 149.538C157.544 145.295 158.504 140.505 158.531 135.154C158.531 135.088 158.531 135.021 158.531 134.954C158.531 134.954 158.531 134.941 158.531 134.927C158.531 134.914 158.531 134.887 158.531 134.874C158.531 134.741 158.531 134.621 158.531 134.487L158.518 134.527Z" fill="#26045D"/>
<path d="M134.887 89.0006C80.754 89.1473 36.6551 134.901 37.002 135.248C37.2822 135.528 80.9942 181.121 135.127 180.974C189.247 180.828 233.292 135.008 232.999 134.727C214.985 116.821 189.006 88.8538 134.874 89.0006H134.887ZM174.449 158.705C170.593 165.683 165.242 171.141 158.357 175.063C151.486 178.986 143.693 180.961 134.994 180.961C126.294 180.961 118.381 178.96 111.51 174.97C104.638 170.98 99.2875 165.496 95.4981 158.518C91.6953 151.54 89.7873 143.707 89.7873 134.994C89.7873 126.281 91.7087 118.262 95.5648 111.284C99.4076 104.305 104.772 98.8478 111.643 94.9249C118.515 91.002 126.307 89.0273 135.007 89.0273C143.707 89.0273 151.619 91.0154 158.504 94.9783C165.376 98.9545 170.713 104.439 174.516 111.444C178.319 118.435 180.213 126.294 180.213 134.994C180.213 143.694 178.279 151.726 174.449 158.705Z" fill="#26045D"/>
</svg>
