<?xml version="1.0" encoding="utf-8"?>
<!-- Generator: Adobe Illustrator 27.4.1, SVG Export Plug-In . SVG Version: 6.00 Build 0)  -->
<svg version="1.1" id="Layer_1" xmlns="http://www.w3.org/2000/svg" xmlns:xlink="http://www.w3.org/1999/xlink" x="0px" y="0px"
	 viewBox="0 0 78 37" style="enable-background:new 0 0 78 37;" xml:space="preserve">
<g>
	<path d="M48.4,18.1c0-0.1,0-0.2,0-0.2c0,0,0,0,0,0c-0.1-2-0.4-3.8-1.2-5.4c-0.5-1.2-1.2-2.2-2.1-3c0,0,0,0-0.1-0.1
		C45,9.3,45,9.3,44.9,9.2c-0.1,0-0.1-0.1-0.2-0.1c0,0-0.1,0-0.1-0.1c-0.2-0.2-0.5-0.4-0.8-0.6C42.5,7.5,40.8,7,39,7
		c-1.9,0-3.5,0.5-4.9,1.5c-1.4,1-2.5,2.3-3.3,4c-0.7,1.7-1.1,3.6-1.1,5.7c0,0,0,0.1,0,0.1c0,0,0,0,0,0c0,0,0,0,0,0
		c0,1.9,0.3,3.5,0.9,5.1c0,0,0,0,0,0c0,0,0,0,0,0c0.5-3.3,2.3-6.1,4.6-7.5c0,0,0,0,0,0c0,0,0,0,0.1,0c1.1-0.6,2.3-1,3.5-1
		c4.3,0,7.9,4,8.4,9.2c0,0,0,0,0,0c0,0,0,0,0,0c0,0,0,0,0,0c0,0,0,0,0,0c0.8-1.7,1.1-3.6,1.2-5.7c0,0,0-0.1,0-0.1c0,0,0,0,0,0
		c0,0,0,0,0,0C48.4,18.2,48.4,18.2,48.4,18.1L48.4,18.1z"/>
	<path d="M39,0.2C17.4,0.3-0.1,18.5,0,18.6c0.1,0.1,17.5,18.3,39,18.2C60.6,36.7,78.1,18.5,78,18.4C70.8,11.3,60.5,0.1,39,0.2
		L39,0.2z M54.7,27.9c-1.5,2.8-3.7,4.9-6.4,6.5c-2.7,1.6-5.8,2.3-9.3,2.3c-3.5,0-6.6-0.8-9.3-2.4c-2.7-1.6-4.9-3.8-6.4-6.5
		C21.8,25.1,21,22,21,18.5s0.8-6.7,2.3-9.4c1.5-2.8,3.7-4.9,6.4-6.5C32.4,1,35.5,0.2,39,0.2c3.5,0,6.6,0.8,9.4,2.4
		c2.7,1.6,4.9,3.8,6.4,6.6c1.5,2.8,2.3,5.9,2.3,9.4S56.2,25.2,54.7,27.9z"/>
</g>
</svg>
