<svg width="148" height="70" viewBox="0 0 148 70" fill="none" xmlns="http://www.w3.org/2000/svg">
<path d="M92.0696 34.69C92.0696 34.53 92.0696 34.38 92.0696 34.22C92.0696 34.21 92.0696 34.2 92.0696 34.18C91.9696 30.43 91.2496 27.05 89.8896 24.04C88.8796 21.8 87.5697 19.9 85.9797 18.34C85.9397 18.3 85.9097 18.27 85.8697 18.24C85.7697 18.14 85.6596 18.04 85.5596 17.94C85.4596 17.85 85.3696 17.77 85.2696 17.68C85.2196 17.64 85.1697 17.59 85.1197 17.55C84.6497 17.15 84.1597 16.77 83.6497 16.42C80.9797 14.6 77.8997 13.69 74.4097 13.7C70.9097 13.7 67.8296 14.63 65.1796 16.47C62.5196 18.31 60.4696 20.83 59.0296 24.07C57.6196 27.25 56.8996 30.83 56.8896 34.83C56.8896 34.9 56.8896 34.96 56.8896 35.03C56.8896 35.03 56.8896 35.05 56.8896 35.06C56.8896 35.06 56.8896 35.09 56.8896 35.1C56.8896 38.6 57.4296 41.78 58.5096 44.64C58.5096 44.64 58.5096 44.62 58.5096 44.61C58.5096 44.63 58.5196 44.65 58.5296 44.67C59.4996 38.44 62.8097 33.26 67.2597 30.6C67.2897 30.58 67.3096 30.57 67.3396 30.55C67.3796 30.52 67.4297 30.5 67.4697 30.47C69.4797 29.32 71.7196 28.67 74.0896 28.67C82.1996 28.67 88.8897 36.25 89.8697 46.05C89.8697 46.04 89.8796 46.02 89.8896 46C89.8896 46 89.8896 45.99 89.8896 45.98C89.8896 45.98 89.8896 45.98 89.8896 45.99C89.8896 45.98 89.8997 45.96 89.9097 45.94C91.3397 42.76 92.0597 39.17 92.0797 35.16C92.0797 35.11 92.0797 35.06 92.0797 35.01C92.0797 35.01 92.0797 35 92.0797 34.99C92.0797 34.98 92.0797 34.96 92.0797 34.95C92.0797 34.85 92.0797 34.76 92.0797 34.66L92.0696 34.69Z" fill="white"/>
<path d="M74.3596 0.570011C33.7896 0.680011 0.73957 34.97 0.99957 35.23C1.20957 35.44 33.9696 69.61 74.5396 69.5C115.1 69.39 148.11 35.05 147.89 34.84C134.39 21.42 114.92 0.460011 74.3496 0.570011H74.3596ZM104.01 52.81C101.12 58.04 97.1096 62.13 91.9496 65.07C86.7996 68.01 80.9596 69.49 74.4396 69.49C67.9196 69.49 61.9896 67.99 56.8396 65C51.6896 62.01 47.6796 57.9 44.8396 52.67C41.9896 47.44 40.5596 41.57 40.5596 35.04C40.5596 28.51 41.9996 22.5 44.8896 17.27C47.7696 12.04 51.7896 7.95001 56.9396 5.01001C62.0896 2.07001 67.9296 0.590012 74.4496 0.590012C80.9696 0.590012 86.8996 2.08001 92.0596 5.05001C97.2096 8.03001 101.21 12.14 104.06 17.39C106.91 22.63 108.33 28.52 108.33 35.04C108.33 41.56 106.88 47.58 104.01 52.81Z" fill="white"/>
</svg>
