<?xml version="1.0" encoding="utf-8"?>
<!-- Generator: Adobe Illustrator 27.4.1, SVG Export Plug-In . SVG Version: 6.00 Build 0)  -->
<svg version="1.1" id="Layer_1" xmlns="http://www.w3.org/2000/svg" xmlns:xlink="http://www.w3.org/1999/xlink" x="0px" y="0px"
	 viewBox="0 0 266.7 50.9" style="enable-background:new 0 0 266.7 50.9;" xml:space="preserve">
<style type="text/css">
	.st0{fill:#7289DA;}
</style>
<g>
	<path class="st0" d="M41.9,22.8c0-0.1,0-0.1,0-0.2l0,0c0-1.7-0.4-3.3-1-4.7c-0.5-1-1.1-1.9-1.8-2.6c0,0,0,0-0.1,0l-0.1-0.1
		l-0.1-0.1c0,0,0,0-0.1-0.1c-0.2-0.2-0.4-0.4-0.7-0.5c-1.2-0.8-2.6-1.3-4.3-1.3c-1.6,0-3,0.4-4.3,1.3c-1.2,0.8-2.2,2-2.8,3.5
		c-0.6,1.5-1,3.1-1,5v0.1l0,0l0,0c0,1.6,0.2,3.1,0.7,4.4l0,0l0,0c0.4-2.9,2-5.3,4-6.5l0,0c0,0,0,0,0.1,0c0.9-0.5,2-0.8,3-0.8
		c3.7,0,6.8,3.5,7.3,8l0,0l0,0l0,0l0,0c0.7-1.5,1-3.1,1-5c0,0,0,0,0-0.1l0,0l0,0C41.9,22.9,41.9,22.8,41.9,22.8L41.9,22.8z"/>
	<path class="st0" d="M33.8,7.1C15.1,7.1-0.1,22.9,0,23s15.2,15.8,33.9,15.8c18.7-0.1,33.9-15.9,33.8-16C61.4,16.7,52.5,7,33.8,7.1
		L33.8,7.1z M47.4,31.1c-1.3,2.4-3.2,4.3-5.6,5.6c-2.4,1.4-5.1,2-8.1,2S28,38,25.6,36.6c-2.4-1.4-4.2-3.3-5.5-5.7
		c-1.3-2.4-2-5.1-2-8.1s0.7-5.8,2-8.2s3.2-4.3,5.5-5.6s5.1-2,8.1-2s5.7,0.7,8.1,2.1c2.4,1.4,4.2,3.3,5.5,5.7s2,5.1,2,8.1
		C49.4,25.9,48.8,28.7,47.4,31.1z"/>
	<path class="st0" d="M86.1,12.2L79.2,0.4h3.6l4.9,8.8h0.1l4.8-8.8h3.5l-6.9,11.8v7.5H86L86.1,12.2L86.1,12.2z M101.2,20
		c-1.4,0-2.6-0.3-3.6-0.9s-1.8-1.5-2.3-2.5c-0.5-1.1-0.8-2.3-0.8-3.6s0.3-2.5,0.8-3.6c0.6-1.1,1.3-1.9,2.3-2.6c1-0.6,2.2-1,3.6-1
		s2.6,0.3,3.6,1c1,0.6,1.8,1.5,2.4,2.6s0.8,2.3,0.8,3.6s-0.3,2.6-0.8,3.6c-0.6,1.1-1.3,1.9-2.4,2.5S102.5,20,101.2,20z M101.2,17.7
		c0.8,0,1.5-0.2,2.1-0.6s1-1,1.3-1.7s0.4-1.6,0.4-2.5s-0.1-1.8-0.4-2.5s-0.7-1.3-1.3-1.7c-0.6-0.4-1.2-0.6-2.1-0.6
		c-0.8,0-1.5,0.2-2.1,0.6c-0.6,0.4-1,1-1.3,1.7s-0.4,1.6-0.4,2.5c0,1,0.1,1.8,0.4,2.5s0.7,1.3,1.3,1.7
		C99.6,17.5,100.3,17.7,101.2,17.7z M114.6,20c-1.4,0-2.6-0.4-3.5-1.3s-1.3-2-1.3-3.5v-9h3v8.4c0,1,0.2,1.8,0.7,2.3s1.2,0.7,1.9,0.7
		c0.6,0,1.2-0.2,1.7-0.5s0.9-0.8,1.2-1.3c0.3-0.5,0.4-1.1,0.4-1.7V6.2h3v13.5H119v-2h-0.1c-0.5,0.8-1,1.3-1.8,1.7
		C116.4,19.8,115.6,20,114.6,20z M124.6,6.2h2.9v2.5h0.1c0.3-0.9,0.8-1.5,1.4-2s1.5-0.7,2.5-0.7c0.2,0,0.5,0,0.8,0.1v2.7
		c-0.3-0.1-0.6-0.1-1-0.1c-0.7,0-1.4,0.2-2,0.5s-1,0.8-1.3,1.4c-0.3,0.6-0.5,1.2-0.5,1.9v7.3h-2.9V6.2z M142.8,20
		c-1.9,0-3.5-0.4-4.9-1.3s-2.4-2.1-3.1-3.6c-0.7-1.5-1.1-3.2-1.1-5.2c0-1.9,0.4-3.6,1.1-5.1c0.7-1.5,1.8-2.7,3.1-3.6
		c1.4-0.9,3-1.3,4.9-1.3c2.4,0,4.3,0.7,5.8,2c1.4,1.3,2.3,3.1,2.6,5.2H148c-0.2-1.4-0.8-2.5-1.7-3.3s-2.1-1.2-3.5-1.2
		c-1.2,0-2.2,0.3-3.1,0.9c-0.9,0.6-1.5,1.4-2,2.5S137,8.4,137,9.9s0.2,2.8,0.7,3.9s1.2,1.9,2,2.5c0.9,0.6,1.9,0.9,3.1,0.9
		c1.5,0,2.6-0.4,3.5-1.2c0.9-0.8,1.5-2,1.7-3.4h3.3c-0.3,2.2-1.2,4-2.7,5.4C147.2,19.4,145.2,20,142.8,20z M153.5,0.4h2.9v7.8h0.1
		c0.4-0.8,1-1.3,1.7-1.7c0.7-0.4,1.5-0.6,2.4-0.6c1.5,0,2.7,0.4,3.5,1.3c0.9,0.8,1.3,2,1.3,3.5v9.1h-2.9v-8.4c0-1-0.3-1.8-0.8-2.2
		c-0.5-0.5-1.2-0.7-1.9-0.7c-0.6,0-1.2,0.2-1.7,0.5s-0.9,0.7-1.2,1.2s-0.4,1.1-0.4,1.6v8h-2.9V0.4H153.5z M174.2,20
		c-1.4,0-2.6-0.3-3.6-0.9s-1.8-1.5-2.3-2.5c-0.5-1.1-0.8-2.3-0.8-3.6s0.3-2.5,0.8-3.6s1.3-1.9,2.3-2.6c1-0.6,2.2-1,3.5-1
		c1.4,0,2.6,0.3,3.6,1c1,0.6,1.7,1.5,2.2,2.7s0.7,2.6,0.7,4.1h-10.1c0,0.8,0.2,1.5,0.5,2.1s0.7,1.1,1.3,1.5c0.6,0.3,1.3,0.5,2,0.5
		c0.9,0,1.6-0.2,2.2-0.6c0.6-0.4,0.9-1,1.1-1.6h2.9c-0.4,1.3-1.1,2.4-2.2,3.3C177.1,19.6,175.8,20,174.2,20z M177.5,11.6
		c-0.1-0.7-0.2-1.4-0.5-1.9s-0.6-0.9-1.2-1.2c-0.5-0.3-1.1-0.4-1.8-0.4s-1.3,0.1-1.8,0.4c-0.5,0.3-0.9,0.7-1.2,1.2s-0.5,1.1-0.6,1.9
		H177.5z M186.4,20c-1.4,0-2.5-0.3-3.3-1s-1.2-1.7-1.2-2.9c0-1,0.3-1.8,0.9-2.4s1.3-1,2.1-1.2c0.8-0.3,1.8-0.5,2.9-0.6
		c0.1,0,0.1,0,0.1,0c0.8-0.1,1.4-0.2,1.8-0.3c0.5-0.1,0.8-0.3,1.1-0.5s0.4-0.5,0.4-0.8c0-0.8-0.2-1.3-0.7-1.6s-1.2-0.5-2-0.5
		c-1,0-1.7,0.2-2.2,0.6c-0.5,0.4-0.7,0.9-0.8,1.7h-2.8c0.1-1.4,0.6-2.5,1.6-3.3c1.1-0.8,2.5-1.2,4.2-1.2c1.8,0,3.2,0.4,4.2,1.3
		c1,0.8,1.4,2,1.4,3.6v5.7c0,0.5,0.1,0.8,0.2,1c0.1,0.2,0.3,0.3,0.5,0.3s0.3,0,0.4,0v2c-0.1,0.1-0.3,0.1-0.6,0.1
		c-0.3,0.1-0.5,0.1-0.8,0.1c-0.7,0-1.3-0.2-1.7-0.6s-0.6-0.9-0.7-1.5v-0.1h-0.1c-0.3,0.7-0.9,1.3-1.8,1.7
		C188.5,19.8,187.5,20,186.4,20z M187.2,17.9c0.7,0,1.3-0.1,1.9-0.4c0.6-0.3,1.1-0.7,1.5-1.2s0.6-1.1,0.6-1.7v-1.8
		c-0.2,0.2-0.5,0.4-1.1,0.5c-0.5,0.1-1.2,0.2-1.9,0.3s-1.3,0.2-1.8,0.4c-0.5,0.1-0.9,0.4-1.2,0.7s-0.5,0.7-0.5,1.2
		c0,0.6,0.2,1.1,0.7,1.5C185.8,17.7,186.4,17.9,187.2,17.9z M200.6,20c-1.1,0-1.9-0.3-2.6-0.9c-0.6-0.6-1-1.5-1-2.8V8.4h-1.7V6.2
		h1.7V2.1h2.9v4.1h2.7v2.2h-2.7V16c0,0.5,0.1,0.9,0.3,1.1s0.5,0.4,0.9,0.4c0.3,0,0.6,0,0.8,0c0.3,0,0.5-0.1,0.7-0.1v2.3
		c-0.2,0.1-0.5,0.1-0.9,0.2S200.9,20,200.6,20z M213.4,20c-1.9,0-3.5-0.4-4.9-1.3s-2.4-2.1-3.1-3.6c-0.7-1.5-1.1-3.2-1.1-5.2
		c0-1.9,0.4-3.6,1.1-5.1c0.7-1.5,1.8-2.7,3.1-3.6c1.4-0.9,3-1.3,4.9-1.3c2.4,0,4.3,0.7,5.8,2c1.4,1.3,2.3,3.1,2.6,5.2h-3.2
		c-0.2-1.4-0.8-2.5-1.7-3.3s-2.1-1.2-3.5-1.2c-1.2,0-2.2,0.3-3.1,0.9c-0.9,0.6-1.5,1.4-2,2.5s-0.7,2.4-0.7,3.9s0.2,2.8,0.7,3.9
		s1.2,1.9,2,2.5c0.9,0.6,1.9,0.9,3.1,0.9c1.5,0,2.6-0.4,3.5-1.2c0.9-0.8,1.5-2,1.7-3.4h3.3c-0.3,2.2-1.2,4-2.7,5.4
		C217.7,19.4,215.8,20,213.4,20z M230.2,20c-1.4,0-2.6-0.3-3.6-0.9s-1.8-1.5-2.3-2.5c-0.5-1.1-0.8-2.3-0.8-3.6s0.3-2.5,0.8-3.6
		c0.6-1.1,1.3-1.9,2.3-2.6c1-0.6,2.2-1,3.6-1c1.4,0,2.6,0.3,3.6,1c1,0.6,1.8,1.5,2.4,2.6c0.6,1.1,0.8,2.3,0.8,3.6s-0.3,2.6-0.8,3.6
		c-0.6,1.1-1.3,1.9-2.4,2.5C232.7,19.7,231.5,20,230.2,20z M230.2,17.7c0.8,0,1.5-0.2,2.1-0.6s1-1,1.3-1.7s0.4-1.6,0.4-2.5
		s-0.1-1.8-0.4-2.5c-0.3-0.7-0.7-1.3-1.3-1.7s-1.2-0.6-2.1-0.6c-0.8,0-1.5,0.2-2.1,0.6c-0.6,0.4-1,1-1.3,1.7s-0.4,1.6-0.4,2.5
		c0,1,0.1,1.8,0.4,2.5c0.3,0.7,0.7,1.3,1.3,1.7C228.6,17.5,229.3,17.7,230.2,17.7z M244.4,20c-1.2,0-2.3-0.3-3.2-0.9
		s-1.6-1.5-2.1-2.5c-0.5-1.1-0.7-2.3-0.7-3.6s0.2-2.6,0.7-3.6c0.5-1.1,1.2-1.9,2.1-2.6c0.9-0.6,2-0.9,3.2-0.9c1,0,1.9,0.2,2.6,0.7
		c0.7,0.4,1.3,1,1.6,1.7h0.1V0.4h3v19.3h-2.9v-2.1h-0.1c-0.2,0.4-0.5,0.8-0.9,1.2c-0.4,0.4-0.8,0.7-1.4,0.9S245.1,20,244.4,20z
		 M245,17.7c0.8,0,1.5-0.2,2-0.6c0.6-0.4,1-1,1.2-1.7c0.3-0.7,0.4-1.6,0.4-2.5s-0.1-1.8-0.4-2.5c-0.3-0.7-0.7-1.3-1.2-1.7
		s-1.2-0.6-2-0.6s-1.4,0.2-2,0.6c-0.6,0.4-1,1-1.3,1.7s-0.4,1.5-0.4,2.5s0.1,1.8,0.4,2.5c0.3,0.7,0.7,1.3,1.3,1.7
		S244.3,17.7,245,17.7z M260.4,20c-1.4,0-2.6-0.3-3.6-0.9s-1.8-1.5-2.3-2.5c-0.5-1.1-0.8-2.3-0.8-3.6s0.3-2.5,0.8-3.6
		s1.3-1.9,2.3-2.6c1-0.6,2.2-1,3.5-1c1.4,0,2.6,0.3,3.6,1c1,0.6,1.7,1.5,2.2,2.7s0.7,2.6,0.7,4.1h-10.1c0,0.8,0.2,1.5,0.5,2.1
		s0.7,1.1,1.3,1.5c0.6,0.3,1.3,0.5,2,0.5c0.9,0,1.6-0.2,2.2-0.6s0.9-1,1.1-1.6h2.9c-0.4,1.3-1.1,2.4-2.2,3.3
		C263.3,19.6,262,20,260.4,20z M263.8,11.6c-0.1-0.7-0.2-1.4-0.5-1.9s-0.6-0.9-1.2-1.2c-0.5-0.3-1.1-0.4-1.8-0.4
		c-0.7,0-1.3,0.1-1.8,0.4c-0.5,0.3-0.9,0.7-1.2,1.2c-0.3,0.5-0.5,1.1-0.6,1.9H263.8z M86.2,26.4h3.5l7,19.3h-3.3L88,30l0,0
		l-5.4,15.7h-3.3L86.2,26.4z M82.9,38.7h10v2.5h-10V38.7z M104.3,46c-1.3,0-2.5-0.3-3.5-0.9c-1-0.6-1.8-1.5-2.3-2.6
		s-0.8-2.3-0.8-3.6s0.3-2.5,0.8-3.6s1.3-1.9,2.3-2.6c1-0.6,2.2-1,3.5-1c1.7,0,3.1,0.5,4.2,1.5s1.7,2.2,1.9,3.8h-2.9
		c-0.1-0.9-0.5-1.6-1-2.2c-0.6-0.5-1.3-0.8-2.2-0.8c-0.8,0-1.4,0.2-2,0.6c-0.5,0.4-0.9,1-1.2,1.7c-0.3,0.7-0.4,1.5-0.4,2.5
		s0.1,1.8,0.4,2.5s0.7,1.3,1.3,1.7c0.6,0.4,1.2,0.6,2,0.6c0.9,0,1.7-0.3,2.2-0.8c0.6-0.6,0.9-1.3,1-2.3h2.9
		c-0.2,1.6-0.8,2.9-1.9,3.9C107.5,45.5,106.1,46,104.3,46z M116.2,46c-1.4,0-2.5-0.3-3.3-1s-1.2-1.7-1.2-2.9c0-1,0.3-1.8,0.9-2.4
		c0.6-0.6,1.3-1,2.1-1.2c0.8-0.3,1.8-0.5,2.9-0.6c0.1,0,0.1,0,0.1,0c0.8-0.1,1.4-0.2,1.8-0.3c0.5-0.1,0.8-0.3,1-0.5
		c0.3-0.2,0.4-0.5,0.4-0.8c0-0.8-0.2-1.3-0.7-1.6s-1.2-0.5-2-0.5c-1,0-1.7,0.2-2.2,0.6c-0.5,0.4-0.7,0.9-0.8,1.7h-2.8
		c0.1-1.4,0.6-2.5,1.6-3.3s2.5-1.2,4.2-1.2c1.8,0,3.2,0.4,4.2,1.3c1,0.8,1.4,2,1.4,3.6v5.7c0,0.5,0.1,0.8,0.2,1s0.3,0.3,0.5,0.3
		s0.3,0,0.4,0v2c-0.1,0.1-0.3,0.1-0.6,0.1c-0.3,0.1-0.5,0.1-0.8,0.1c-0.7,0-1.3-0.2-1.7-0.6c-0.4-0.4-0.6-0.9-0.7-1.5v-0.1H121
		c-0.3,0.7-0.9,1.3-1.8,1.7C118.4,45.8,117.4,46,116.2,46z M117,43.9c0.7,0,1.3-0.1,1.9-0.4c0.6-0.3,1.1-0.7,1.5-1.2
		s0.6-1.1,0.6-1.7v-1.8c-0.2,0.2-0.5,0.4-1.1,0.5c-0.5,0.1-1.2,0.2-1.9,0.3c-0.7,0.1-1.3,0.2-1.8,0.4c-0.5,0.1-0.9,0.4-1.2,0.7
		c-0.3,0.3-0.5,0.7-0.5,1.2c0,0.6,0.2,1.1,0.7,1.5C115.7,43.7,116.3,43.9,117,43.9z M131.7,46c-1.2,0-2.3-0.3-3.2-0.9
		c-0.9-0.6-1.6-1.5-2.1-2.5c-0.5-1.1-0.7-2.3-0.7-3.6s0.2-2.6,0.7-3.6c0.5-1.1,1.2-1.9,2.1-2.6c0.9-0.6,2-0.9,3.2-0.9
		c1,0,1.9,0.2,2.6,0.7c0.7,0.4,1.3,1,1.6,1.7h0.1v-7.8h3v19.3h-3v-2.1l0,0c-0.2,0.4-0.5,0.8-0.9,1.2s-0.8,0.7-1.4,0.9
		S132.4,46,131.7,46z M132.3,43.7c0.8,0,1.5-0.2,2-0.6c0.6-0.4,1-1,1.2-1.7c0.3-0.7,0.4-1.6,0.4-2.5c0-1-0.1-1.8-0.4-2.5
		c-0.3-0.7-0.7-1.3-1.2-1.7s-1.2-0.6-2-0.6s-1.4,0.2-2,0.6c-0.6,0.4-1,1-1.3,1.7s-0.4,1.5-0.4,2.5s0.1,1.8,0.4,2.5
		c0.3,0.7,0.7,1.3,1.3,1.7C130.9,43.5,131.6,43.7,132.3,43.7z M147.7,46c-1.4,0-2.6-0.3-3.6-0.9c-1-0.6-1.8-1.5-2.3-2.5
		c-0.5-1.1-0.8-2.3-0.8-3.6s0.3-2.5,0.8-3.6s1.3-1.9,2.3-2.6c1-0.6,2.2-1,3.5-1c1.4,0,2.6,0.3,3.6,1c1,0.6,1.7,1.5,2.2,2.7
		s0.7,2.6,0.7,4.1H144c0,0.8,0.2,1.5,0.5,2.1s0.7,1.1,1.3,1.5c0.6,0.3,1.3,0.5,2,0.5c0.9,0,1.6-0.2,2.2-0.6c0.6-0.4,0.9-1,1.1-1.6
		h2.9c-0.4,1.3-1.1,2.4-2.2,3.3C150.6,45.6,149.3,46,147.7,46z M151.1,37.6c-0.1-0.7-0.2-1.4-0.5-1.9s-0.6-0.9-1.2-1.2
		c-0.5-0.3-1.1-0.4-1.8-0.4s-1.3,0.1-1.8,0.4c-0.5,0.3-0.9,0.7-1.2,1.2s-0.5,1.1-0.6,1.9H151.1z M156.1,32.2h2.9v2h0.1
		c0.5-0.8,1-1.4,1.7-1.7c0.6-0.4,1.4-0.6,2.2-0.6c1,0,1.8,0.2,2.5,0.7c0.7,0.4,1.2,1,1.6,1.8h0.1c0.5-0.8,1.1-1.4,1.9-1.8
		c0.8-0.5,1.6-0.7,2.4-0.7c1.3,0,2.4,0.4,3.3,1.3c0.9,0.9,1.3,2,1.3,3.5v9.1h-3v-8.4c0-1-0.2-1.8-0.7-2.2c-0.5-0.5-1-0.7-1.7-0.7
		c-0.6,0-1.1,0.2-1.6,0.5s-0.8,0.7-1.1,1.2c-0.2,0.5-0.4,1.1-0.4,1.7v8h-3v-8.4c0-1-0.2-1.8-0.7-2.2c-0.5-0.5-1-0.7-1.7-0.7
		c-0.6,0-1.1,0.2-1.5,0.5c-0.5,0.3-0.8,0.7-1.1,1.2s-0.4,1.1-0.4,1.7v8h-2.9V32.2H156.1z M180,50.9c-0.6,0-1.2-0.1-1.7-0.2v-2.4
		c0.4,0.1,0.8,0.1,1.2,0.1c0.5,0,0.9-0.1,1.2-0.4c0.4-0.2,0.6-0.6,0.8-1l0.6-1.5l-5.4-13.3h3.1l3.6,9.9h0.1l3.4-9.9h3l-5.7,14.9
		c-0.3,0.8-0.7,1.5-1.1,2c-0.4,0.6-0.8,1-1.4,1.3C181.3,50.7,180.7,50.9,180,50.9z"/>
</g>
</svg>
