<svg width="1512" height="156" viewBox="0 0 1512 156" fill="none" xmlns="http://www.w3.org/2000/svg">
<mask id="path-1-inside-1_109_1671" fill="white">
<path d="M-15 0H210V156H-15V0Z"/>
</mask>
<path d="M-15 0H210V156H-15V0Z" fill="#C438DC"/>
<path d="M-15 0V-3H-18V0H-15ZM210 0H211.5V-3H210V0ZM210 156V159H211.5V156H210ZM-15 156H-18V159H-15V156ZM-15 3H210V-3H-15V3ZM208.5 0V156H211.5V0H208.5ZM210 153H-15V159H210V153ZM-12 156V0H-18V156H-12Z" fill="#F9F7EF" mask="url(#path-1-inside-1_109_1671)"/>
<mask id="path-3-inside-2_109_1671" fill="white">
<path d="M210 0H476V156H210V0Z"/>
</mask>
<path d="M210 0H476V156H210V0Z" fill="#C438DC"/>
<path d="M210 0V-3H208.5V0H210ZM476 0H477.5V-3H476V0ZM476 156V159H477.5V156H476ZM210 156H208.5V159H210V156ZM210 3H476V-3H210V3ZM474.5 0V156H477.5V0H474.5ZM476 153H210V159H476V153ZM211.5 156V0H208.5V156H211.5Z" fill="#F9F7EF" mask="url(#path-3-inside-2_109_1671)"/>
<mask id="path-5-inside-3_109_1671" fill="white">
<path d="M476 0H961V156H476V0Z"/>
</mask>
<path d="M476 0H961V156H476V0Z" fill="#C438DC"/>
<path d="M476 0V-3H474.5V0H476ZM961 0H962.5V-3H961V0ZM961 156V159H962.5V156H961ZM476 156H474.5V159H476V156ZM476 3H961V-3H476V3ZM959.5 0V156H962.5V0H959.5ZM961 153H476V159H961V153ZM477.5 156V0H474.5V156H477.5Z" fill="#F9F7EF" mask="url(#path-5-inside-3_109_1671)"/>
<mask id="path-7-inside-4_109_1671" fill="white">
<path d="M961 0H1138V156H961V0Z"/>
</mask>
<path d="M961 0H1138V156H961V0Z" fill="#C438DC"/>
<path d="M961 0V-3H959.5V0H961ZM1138 0H1139.5V-3H1138V0ZM1138 156V159H1139.5V156H1138ZM961 156H959.5V159H961V156ZM961 3H1138V-3H961V3ZM1136.5 0V156H1139.5V0H1136.5ZM1138 153H961V159H1138V153ZM962.5 156V0H959.5V156H962.5Z" fill="#F9F7EF" mask="url(#path-7-inside-4_109_1671)"/>
<mask id="path-9-inside-5_109_1671" fill="white">
<path d="M1138 0H1608V156H1138V0Z"/>
</mask>
<path d="M1138 0H1608V156H1138V0Z" fill="#C438DC"/>
<path d="M1138 0V-3H1136.5V0H1138ZM1608 0H1609.5V-3H1608V0ZM1608 156V159H1609.5V156H1608ZM1138 156H1136.5V159H1138V156ZM1138 3H1608V-3H1138V3ZM1606.5 0V156H1609.5V0H1606.5ZM1608 153H1138V159H1608V153ZM1139.5 156V0H1136.5V156H1139.5Z" fill="#F9F7EF" mask="url(#path-9-inside-5_109_1671)"/>
</svg>
