<svg width="2733" height="156" viewBox="0 0 2733 156" fill="none" xmlns="http://www.w3.org/2000/svg">
<rect x="-1.5" y="1.5" width="2727" height="153" transform="matrix(-1 0 0 1 2728 0)" fill="#7ED59A" stroke="#F9F7EF" stroke-width="3"/>
<path d="M69.456 115.98C40.0928 131.967 12.2507 131.634 2 129.469V154H2731V43.5417L2730 43.1056C2707.85 41.4403 2659.5 39.0915 2633.28 68.5206C2604.94 100.327 2545.98 129.969 2480.02 115.481C2414.05 100.993 2421.5 54.6468 2363.95 32.0514C2317.63 13.862 2209.5 29.0556 2130 52.1377C2049.32 75.5623 2059.41 135.963 1978.06 137.962C1896.72 139.96 1856 75.7216 1776.19 61.0269C1719.18 50.5304 1631.5 100.811 1588.21 124.973C1554.5 147.477 1446.25 147.354 1380.38 71.0185C1314.52 -5.31693 1194.88 61.8595 1143.3 104.99C1111.72 127.97 1055 154 1010.37 113.982C968.07 76.0565 888.5 38.0877 837.76 31.0522C786.341 26.0565 707.5 33.0699 659.2 73.0167C611.591 112.392 549.5 150.885 504.448 132.966C474.608 121.097 419.017 116.552 377.968 129.469C344.5 140 271.5 146 235.616 115.98C205.352 90.6618 106.16 95.9972 69.456 115.98Z" fill="#51B37F" stroke="#F9F7EF" stroke-width="3"/>
</svg>
