<?xml version="1.0" encoding="utf-8"?>
<!-- Generator: Adobe Illustrator 27.4.1, SVG Export Plug-In . SVG Version: 6.00 Build 0)  -->
<svg version="1.1" id="Layer_1" xmlns="http://www.w3.org/2000/svg" xmlns:xlink="http://www.w3.org/1999/xlink" x="0px" y="0px"
	 viewBox="0 0 1623 156" style="enable-background:new 0 0 1623 156;" xml:space="preserve">
<style type="text/css">
	.st0{fill:#C438DC;}
	.st1{fill:#FFFFFF;filter:url(#Adobe_OpacityMaskFilter);}
	.st2{mask:url(#path-1-inside-1_109_1671_00000017506450085748472820000016496236159808498594_);fill:#F9F7EF;}
	.st3{fill:#FFFFFF;filter:url(#Adobe_OpacityMaskFilter_00000035525338031106097200000006919876734836948136_);}
	.st4{mask:url(#path-3-inside-2_109_1671_00000176044446041305094500000010718377764240500109_);fill:#F9F7EF;}
	.st5{fill:#FFFFFF;filter:url(#Adobe_OpacityMaskFilter_00000164476226672913830850000015589400084230818176_);}
	.st6{mask:url(#path-5-inside-3_109_1671_00000112628328664724401200000005450224683046701187_);fill:#F9F7EF;}
	.st7{fill:#FFFFFF;filter:url(#Adobe_OpacityMaskFilter_00000057827173320354653790000015953541326484017303_);}
	.st8{mask:url(#path-7-inside-4_109_1671_00000163784872405261513630000017252490051886543268_);fill:#F9F7EF;}
	.st9{fill:#FFFFFF;filter:url(#Adobe_OpacityMaskFilter_00000026872928277037865390000016627620663307334802_);}
	.st10{mask:url(#path-9-inside-5_109_1671_00000182512582915842999720000005600517623293478588_);fill:#F9F7EF;}
</style>
<path class="st0" d="M0,0h225v156H0V0z"/>
<defs>
	<filter id="Adobe_OpacityMaskFilter" filterUnits="userSpaceOnUse" x="-3" y="-3" width="229.5" height="162">
		<feColorMatrix  type="matrix" values="1 0 0 0 0  0 1 0 0 0  0 0 1 0 0  0 0 0 1 0"/>
	</filter>
</defs>
<mask maskUnits="userSpaceOnUse" x="-3" y="-3" width="229.5" height="162" id="path-1-inside-1_109_1671_00000017506450085748472820000016496236159808498594_">
	<path class="st1" d="M0,0h225v156H0V0z"/>
</mask>
<path class="st2" d="M0,0v-3h-3v3H0z M225,0h1.5v-3H225V0z M225,156v3h1.5v-3H225z M0,156h-3v3h3V156z M0,3h225v-6H0V3z M223.5,0
	v156h3V0H223.5z M225,153H0v6h225V153z M3,156V0h-6v156H3z"/>
<path class="st0" d="M225,0h266v156H225V0z"/>
<defs>
	
		<filter id="Adobe_OpacityMaskFilter_00000047052629977944218760000015377848157672754323_" filterUnits="userSpaceOnUse" x="223.5" y="-3" width="269" height="162">
		<feColorMatrix  type="matrix" values="1 0 0 0 0  0 1 0 0 0  0 0 1 0 0  0 0 0 1 0"/>
	</filter>
</defs>
<mask maskUnits="userSpaceOnUse" x="223.5" y="-3" width="269" height="162" id="path-3-inside-2_109_1671_00000176044446041305094500000010718377764240500109_">
	<path style="fill:#FFFFFF;filter:url(#Adobe_OpacityMaskFilter_00000047052629977944218760000015377848157672754323_);" d="M225,0
		h266v156H225V0z"/>
</mask>
<path class="st4" d="M225,0v-3h-1.5v3H225z M491,0h1.5v-3H491V0z M491,156v3h1.5v-3H491z M225,156h-1.5v3h1.5V156z M225,3h266v-6
	H225V3z M489.5,0v156h3V0H489.5z M491,153H225v6h266V153z M226.5,156V0h-3v156H226.5z"/>
<path class="st0" d="M491,0h485v156H491V0z"/>
<defs>
	
		<filter id="Adobe_OpacityMaskFilter_00000166644319061679438000000005486622618504967578_" filterUnits="userSpaceOnUse" x="489.5" y="-3" width="488" height="162">
		<feColorMatrix  type="matrix" values="1 0 0 0 0  0 1 0 0 0  0 0 1 0 0  0 0 0 1 0"/>
	</filter>
</defs>
<mask maskUnits="userSpaceOnUse" x="489.5" y="-3" width="488" height="162" id="path-5-inside-3_109_1671_00000112628328664724401200000005450224683046701187_">
	<path style="fill:#FFFFFF;filter:url(#Adobe_OpacityMaskFilter_00000166644319061679438000000005486622618504967578_);" d="M491,0
		h485v156H491V0z"/>
</mask>
<path class="st6" d="M491,0v-3h-1.5v3H491z M976,0h1.5v-3H976V0z M976,156v3h1.5v-3H976z M491,156h-1.5v3h1.5V156z M491,3h485v-6
	H491V3z M974.5,0v156h3V0H974.5z M976,153H491v6h485V153z M492.5,156V0h-3v156H492.5z"/>
<path class="st0" d="M976,0h177v156H976V0z"/>
<defs>
	
		<filter id="Adobe_OpacityMaskFilter_00000086660674216800636090000012313231924285547706_" filterUnits="userSpaceOnUse" x="974.5" y="-3" width="180" height="162">
		<feColorMatrix  type="matrix" values="1 0 0 0 0  0 1 0 0 0  0 0 1 0 0  0 0 0 1 0"/>
	</filter>
</defs>
<mask maskUnits="userSpaceOnUse" x="974.5" y="-3" width="180" height="162" id="path-7-inside-4_109_1671_00000163784872405261513630000017252490051886543268_">
	<path style="fill:#FFFFFF;filter:url(#Adobe_OpacityMaskFilter_00000086660674216800636090000012313231924285547706_);" d="M976,0
		h177v156H976V0z"/>
</mask>
<path class="st8" d="M976,0v-3h-1.5v3H976z M1153,0h1.5v-3h-1.5V0z M1153,156v3h1.5v-3H1153z M976,156h-1.5v3h1.5V156z M976,3h177
	v-6H976V3z M1151.5,0v156h3V0H1151.5z M1153,153H976v6h177V153z M977.5,156V0h-3v156H977.5z"/>
<path class="st0" d="M1153,0h470v156h-470V0z"/>
<defs>
	
		<filter id="Adobe_OpacityMaskFilter_00000145039552655969323110000009734140153905439908_" filterUnits="userSpaceOnUse" x="1151.5" y="-3" width="473" height="162">
		<feColorMatrix  type="matrix" values="1 0 0 0 0  0 1 0 0 0  0 0 1 0 0  0 0 0 1 0"/>
	</filter>
</defs>
<mask maskUnits="userSpaceOnUse" x="1151.5" y="-3" width="473" height="162" id="path-9-inside-5_109_1671_00000182512582915842999720000005600517623293478588_">
	<path style="fill:#FFFFFF;filter:url(#Adobe_OpacityMaskFilter_00000145039552655969323110000009734140153905439908_);" d="M1153,0
		h470v156h-470V0z"/>
</mask>
<path class="st10" d="M1153,0v-3h-1.5v3H1153z M1623,0h1.5v-3h-1.5V0z M1623,156v3h1.5v-3H1623z M1153,156h-1.5v3h1.5V156z M1153,3
	h470v-6h-470V3z M1621.5,0v156h3V0H1621.5z M1623,153h-470v6h470V153z M1154.5,156V0h-3v156H1154.5z"/>
</svg>
