<svg width="2731" height="156" viewBox="0 0 2731 156" fill="none" xmlns="http://www.w3.org/2000/svg">
<mask id="path-1-inside-1_185_273" fill="white">
<path d="M0 0H225V156H0V0Z"/>
</mask>
<path d="M0 0H225V156H0V0Z" fill="#7E99C9"/>
<path d="M0 0V-3H-3V0H0ZM225 0H226.5V-3H225V0ZM225 156V159H226.5V156H225ZM0 156H-3V159H0V156ZM0 3H225V-3H0V3ZM223.5 0V156H226.5V0H223.5ZM225 153H0V159H225V153ZM3 156V0H-3V156H3Z" fill="#F9F7EF" mask="url(#path-1-inside-1_185_273)"/>
<mask id="path-3-inside-2_185_273" fill="white">
<path d="M225 0H491V156H225V0Z"/>
</mask>
<path d="M225 0H491V156H225V0Z" fill="#7E99C9"/>
<path d="M225 0V-3H223.5V0H225ZM491 0H492.5V-3H491V0ZM491 156V159H492.5V156H491ZM225 156H223.5V159H225V156ZM225 3H491V-3H225V3ZM489.5 0V156H492.5V0H489.5ZM491 153H225V159H491V153ZM226.5 156V0H223.5V156H226.5Z" fill="#F9F7EF" mask="url(#path-3-inside-2_185_273)"/>
<mask id="path-5-inside-3_185_273" fill="white">
<path d="M491 0H976V156H491V0Z"/>
</mask>
<path d="M491 0H976V156H491V0Z" fill="#7E99C9"/>
<path d="M491 0V-3H489.5V0H491ZM976 0H977.5V-3H976V0ZM976 156V159H977.5V156H976ZM491 156H489.5V159H491V156ZM491 3H976V-3H491V3ZM974.5 0V156H977.5V0H974.5ZM976 153H491V159H976V153ZM492.5 156V0H489.5V156H492.5Z" fill="#F9F7EF" mask="url(#path-5-inside-3_185_273)"/>
<mask id="path-7-inside-4_185_273" fill="white">
<path d="M976 0H1153V156H976V0Z"/>
</mask>
<path d="M976 0H1153V156H976V0Z" fill="#7E99C9"/>
<path d="M976 0V-3H974.5V0H976ZM1153 0H1154.5V-3H1153V0ZM1153 156V159H1154.5V156H1153ZM976 156H974.5V159H976V156ZM976 3H1153V-3H976V3ZM1151.5 0V156H1154.5V0H1151.5ZM1153 153H976V159H1153V153ZM977.5 156V0H974.5V156H977.5Z" fill="#F9F7EF" mask="url(#path-7-inside-4_185_273)"/>
<mask id="path-9-inside-5_185_273" fill="white">
<path d="M1153 0H1623V156H1153V0Z"/>
</mask>
<path d="M1153 0H1623V156H1153V0Z" fill="#7E99C9"/>
<path d="M1153 0V-3H1151.5V0H1153ZM1623 0H1624.5V-3H1623V0ZM1623 156V159H1624.5V156H1623ZM1153 156H1151.5V159H1153V156ZM1153 3H1623V-3H1153V3ZM1621.5 0V156H1624.5V0H1621.5ZM1623 153H1153V159H1623V153ZM1154.5 156V0H1151.5V156H1154.5Z" fill="#F9F7EF" mask="url(#path-9-inside-5_185_273)"/>
<mask id="path-11-inside-6_185_273" fill="white">
<path d="M1623 0H1830V156H1623V0Z"/>
</mask>
<path d="M1623 0H1830V156H1623V0Z" fill="#7E99C9"/>
<path d="M1623 0V-3H1621.5V0H1623ZM1830 0H1831.5V-3H1830V0ZM1830 156V159H1831.5V156H1830ZM1623 156H1621.5V159H1623V156ZM1623 3H1830V-3H1623V3ZM1828.5 0V156H1831.5V0H1828.5ZM1830 153H1623V159H1830V153ZM1624.5 156V0H1621.5V156H1624.5Z" fill="#F9F7EF" mask="url(#path-11-inside-6_185_273)"/>
<mask id="path-13-inside-7_185_273" fill="white">
<path d="M1830 0H2012V156H1830V0Z"/>
</mask>
<path d="M1830 0H2012V156H1830V0Z" fill="#7E99C9"/>
<path d="M1830 0V-3H1828.5V0H1830ZM2012 0H2013.5V-3H2012V0ZM2012 156V159H2013.5V156H2012ZM1830 156H1828.5V159H1830V156ZM1830 3H2012V-3H1830V3ZM2010.5 0V156H2013.5V0H2010.5ZM2012 153H1830V159H2012V153ZM1831.5 156V0H1828.5V156H1831.5Z" fill="#F9F7EF" mask="url(#path-13-inside-7_185_273)"/>
<mask id="path-15-inside-8_185_273" fill="white">
<path d="M2012 0H2270V156H2012V0Z"/>
</mask>
<path d="M2012 0H2270V156H2012V0Z" fill="#7E99C9"/>
<path d="M2012 0V-3H2010.5V0H2012ZM2270 0H2271.5V-3H2270V0ZM2270 156V159H2271.5V156H2270ZM2012 156H2010.5V159H2012V156ZM2012 3H2270V-3H2012V3ZM2268.5 0V156H2271.5V0H2268.5ZM2270 153H2012V159H2270V153ZM2013.5 156V0H2010.5V156H2013.5Z" fill="#F9F7EF" mask="url(#path-15-inside-8_185_273)"/>
<mask id="path-17-inside-9_185_273" fill="white">
<path d="M2270 0H2378V156H2270V0Z"/>
</mask>
<path d="M2270 0H2378V156H2270V0Z" fill="#7E99C9"/>
<path d="M2270 0V-3H2268.5V0H2270ZM2378 0H2379.5V-3H2378V0ZM2378 156V159H2379.5V156H2378ZM2270 156H2268.5V159H2270V156ZM2270 3H2378V-3H2270V3ZM2376.5 0V156H2379.5V0H2376.5ZM2378 153H2270V159H2378V153ZM2271.5 156V0H2268.5V156H2271.5Z" fill="#F9F7EF" mask="url(#path-17-inside-9_185_273)"/>
<mask id="path-19-inside-10_185_273" fill="white">
<path d="M2378 0H2545V156H2378V0Z"/>
</mask>
<path d="M2378 0H2545V156H2378V0Z" fill="#7E99C9"/>
<path d="M2378 0V-3H2376.5V0H2378ZM2545 0H2546.5V-3H2545V0ZM2545 156V159H2546.5V156H2545ZM2378 156H2376.5V159H2378V156ZM2378 3H2545V-3H2378V3ZM2543.5 0V156H2546.5V0H2543.5ZM2545 153H2378V159H2545V153ZM2379.5 156V0H2376.5V156H2379.5Z" fill="#F9F7EF" mask="url(#path-19-inside-10_185_273)"/>
<mask id="path-21-inside-11_185_273" fill="white">
<path d="M2545 0H2731V156H2545V0Z"/>
</mask>
<path d="M2545 0H2731V156H2545V0Z" fill="#7E99C9"/>
<path d="M2545 0V-3H2543.5V0H2545ZM2731 0H2734V-3H2731V0ZM2731 156V159H2734V156H2731ZM2545 156H2543.5V159H2545V156ZM2545 3H2731V-3H2545V3ZM2728 0V156H2734V0H2728ZM2731 153H2545V159H2731V153ZM2546.5 156V0H2543.5V156H2546.5Z" fill="#F9F7EF" mask="url(#path-21-inside-11_185_273)"/>
</svg>
