<?xml version="1.0" encoding="utf-8"?>
<!-- Generator: Adobe Illustrator 27.4.1, SVG Export Plug-In . SVG Version: 6.00 Build 0)  -->
<svg version="1.1" id="Layer_1" xmlns="http://www.w3.org/2000/svg" xmlns:xlink="http://www.w3.org/1999/xlink" x="0px" y="0px"
	 viewBox="0 0 1787.1 156" style="enable-background:new 0 0 1787.1 156;" xml:space="preserve">
<style type="text/css">
	.st0{fill:#7E99C9;}
	.st1{fill:#FFFFFF;filter:url(#Adobe_OpacityMaskFilter);}
	.st2{mask:url(#path-1-inside-1_132_183_00000127027798433331708370000003175892813623325333_);fill:#F9F7EF;}
	.st3{fill:#FFFFFF;filter:url(#Adobe_OpacityMaskFilter_00000172428193247812553260000006576235554282109343_);}
	.st4{mask:url(#path-3-inside-2_132_183_00000104677961743476053150000009380513738605382286_);fill:#F9F7EF;}
	.st5{fill:#FFFFFF;filter:url(#Adobe_OpacityMaskFilter_00000034084147091856045240000011721591163241495680_);}
	.st6{mask:url(#path-5-inside-3_132_183_00000038377327906911468580000016365702587125470387_);fill:#F9F7EF;}
	.st7{fill:#FFFFFF;filter:url(#Adobe_OpacityMaskFilter_00000060029787029598707960000014537007070070902430_);}
	.st8{mask:url(#path-7-inside-4_132_183_00000183938245208359250310000004553002705284609171_);fill:#F9F7EF;}
	.st9{fill:#FFFFFF;filter:url(#Adobe_OpacityMaskFilter_00000047745106245129074100000013199714846806231197_);}
	.st10{mask:url(#path-9-inside-5_132_183_00000065793239644566873700000018273651581960748716_);fill:#F9F7EF;}
	.st11{fill:#FFFFFF;filter:url(#Adobe_OpacityMaskFilter_00000176021840379192585750000015259605602639165069_);}
	.st12{mask:url(#path-11-inside-6_132_183_00000018919822309023782450000014502163443139094676_);fill:#F9F7EF;}
</style>
<g>
	<path class="st0" d="M0.1,0h266v156H0.1V0z"/>
	<defs>
		<filter id="Adobe_OpacityMaskFilter" filterUnits="userSpaceOnUse" x="-1.4" y="-3" width="269" height="162">
			<feColorMatrix  type="matrix" values="1 0 0 0 0  0 1 0 0 0  0 0 1 0 0  0 0 0 1 0"/>
		</filter>
	</defs>
	
		<mask maskUnits="userSpaceOnUse" x="-1.4" y="-3" width="269" height="162" id="path-1-inside-1_132_183_00000127027798433331708370000003175892813623325333_">
		<path class="st1" d="M0.1,0h266v156H0.1V0z"/>
	</mask>
	<path class="st2" d="M0.1,0v-3h-1.5v3H0.1z M266.1,0h1.5v-3h-1.5V0z M266.1,156v3h1.5v-3H266.1z M0.1,156h-1.5v3h1.5V156z M0.1,3
		h266v-6H0.1V3z M264.6,0v156h3V0H264.6z M266.1,153H0.1v6h266V153z M1.6,156V0h-3v156H1.6z"/>
	<path class="st0" d="M266.1,0h485v156h-485V0z"/>
	<defs>
		
			<filter id="Adobe_OpacityMaskFilter_00000178896895736946010950000001413339469756612226_" filterUnits="userSpaceOnUse" x="264.6" y="-3" width="488" height="162">
			<feColorMatrix  type="matrix" values="1 0 0 0 0  0 1 0 0 0  0 0 1 0 0  0 0 0 1 0"/>
		</filter>
	</defs>
	
		<mask maskUnits="userSpaceOnUse" x="264.6" y="-3" width="488" height="162" id="path-3-inside-2_132_183_00000104677961743476053150000009380513738605382286_">
		<path style="fill:#FFFFFF;filter:url(#Adobe_OpacityMaskFilter_00000178896895736946010950000001413339469756612226_);" d="
			M266.1,0h485v156h-485V0z"/>
	</mask>
	<path class="st4" d="M266.1,0v-3h-1.5v3H266.1z M751.1,0h1.5v-3h-1.5V0z M751.1,156v3h1.5v-3H751.1z M266.1,156h-1.5v3h1.5V156z
		 M266.1,3h485v-6h-485V3z M749.6,0v156h3V0H749.6z M751.1,153h-485v6h485V153z M267.6,156V0h-3v156H267.6z"/>
	<path class="st0" d="M751.1,0h177v156h-177V0z"/>
	<defs>
		
			<filter id="Adobe_OpacityMaskFilter_00000045587854640587389610000003002854500791690628_" filterUnits="userSpaceOnUse" x="749.6" y="-3" width="180" height="162">
			<feColorMatrix  type="matrix" values="1 0 0 0 0  0 1 0 0 0  0 0 1 0 0  0 0 0 1 0"/>
		</filter>
	</defs>
	
		<mask maskUnits="userSpaceOnUse" x="749.6" y="-3" width="180" height="162" id="path-5-inside-3_132_183_00000038377327906911468580000016365702587125470387_">
		<path style="fill:#FFFFFF;filter:url(#Adobe_OpacityMaskFilter_00000045587854640587389610000003002854500791690628_);" d="
			M751.1,0h177v156h-177V0z"/>
	</mask>
	<path class="st6" d="M751.1,0v-3h-1.5v3H751.1z M928.1,0h1.5v-3h-1.5V0z M928.1,156v3h1.5v-3H928.1z M751.1,156h-1.5v3h1.5V156z
		 M751.1,3h177v-6h-177V3z M926.6,0v156h3V0H926.6z M928.1,153h-177v6h177V153z M752.6,156V0h-3v156H752.6z"/>
	<path class="st0" d="M928.1,0h470v156h-470V0z"/>
	<defs>
		
			<filter id="Adobe_OpacityMaskFilter_00000130643893058308216930000003571816034857619087_" filterUnits="userSpaceOnUse" x="926.6" y="-3" width="473" height="162">
			<feColorMatrix  type="matrix" values="1 0 0 0 0  0 1 0 0 0  0 0 1 0 0  0 0 0 1 0"/>
		</filter>
	</defs>
	
		<mask maskUnits="userSpaceOnUse" x="926.6" y="-3" width="473" height="162" id="path-7-inside-4_132_183_00000183938245208359250310000004553002705284609171_">
		<path style="fill:#FFFFFF;filter:url(#Adobe_OpacityMaskFilter_00000130643893058308216930000003571816034857619087_);" d="
			M928.1,0h470v156h-470V0z"/>
	</mask>
	<path class="st8" d="M928.1,0v-3h-1.5v3H928.1z M1398.1,0h1.5v-3h-1.5V0z M1398.1,156v3h1.5v-3H1398.1z M928.1,156h-1.5v3h1.5V156z
		 M928.1,3h470v-6h-470V3z M1396.6,0v156h3V0H1396.6z M1398.1,153h-470v6h470V153z M929.6,156V0h-3v156H929.6z"/>
	<path class="st0" d="M1398.1,0h207v156h-207V0z"/>
	<defs>
		
			<filter id="Adobe_OpacityMaskFilter_00000132794736608030742450000012389603269623199366_" filterUnits="userSpaceOnUse" x="1396.6" y="-3" width="210" height="162">
			<feColorMatrix  type="matrix" values="1 0 0 0 0  0 1 0 0 0  0 0 1 0 0  0 0 0 1 0"/>
		</filter>
	</defs>
	
		<mask maskUnits="userSpaceOnUse" x="1396.6" y="-3" width="210" height="162" id="path-9-inside-5_132_183_00000065793239644566873700000018273651581960748716_">
		<path style="fill:#FFFFFF;filter:url(#Adobe_OpacityMaskFilter_00000132794736608030742450000012389603269623199366_);" d="
			M1398.1,0h207v156h-207V0z"/>
	</mask>
	<path class="st10" d="M1398.1,0v-3h-1.5v3H1398.1z M1605.1,0h1.5v-3h-1.5V0z M1605.1,156v3h1.5v-3H1605.1z M1398.1,156h-1.5v3h1.5
		V156z M1398.1,3h207v-6h-207V3z M1603.6,0v156h3V0H1603.6z M1605.1,153h-207v6h207V153z M1399.6,156V0h-3v156H1399.6z"/>
	<path class="st0" d="M1605.1,0h182v156h-182V0z"/>
	<defs>
		
			<filter id="Adobe_OpacityMaskFilter_00000179617125132139432440000001513313481500231040_" filterUnits="userSpaceOnUse" x="1603.6" y="-3" width="185" height="162">
			<feColorMatrix  type="matrix" values="1 0 0 0 0  0 1 0 0 0  0 0 1 0 0  0 0 0 1 0"/>
		</filter>
	</defs>
	
		<mask maskUnits="userSpaceOnUse" x="1603.6" y="-3" width="185" height="162" id="path-11-inside-6_132_183_00000018919822309023782450000014502163443139094676_">
		<path style="fill:#FFFFFF;filter:url(#Adobe_OpacityMaskFilter_00000179617125132139432440000001513313481500231040_);" d="
			M1605.1,0h182v156h-182V0z"/>
	</mask>
	<path class="st12" d="M1605.1,0v-3h-1.5v3H1605.1z M1787.1,0h1.5v-3h-1.5V0z M1787.1,156v3h1.5v-3H1787.1z M1605.1,156h-1.5v3h1.5
		V156z M1605.1,3h182v-6h-182V3z M1785.6,0v156h3V0H1785.6z M1787.1,153h-182v6h182V153z M1606.6,156V0h-3v156H1606.6z"/>
</g>
</svg>
