<?xml version="1.0" encoding="utf-8"?>
<!-- Generator: Adobe Illustrator 27.4.1, SVG Export Plug-In . SVG Version: 6.00 Build 0)  -->
<svg version="1.1" id="Layer_1" xmlns="http://www.w3.org/2000/svg" xmlns:xlink="http://www.w3.org/1999/xlink" x="0px" y="0px"
	 viewBox="0 0 2728 154" style="enable-background:new 0 0 2728 154;" xml:space="preserve">
<style type="text/css">
	.st0{fill:#7ED59A;}
	.st1{fill:#F9F7EF;}
	.st2{fill:#51B37F;}
</style>
<g>
	<g>
		<rect x="1.5" y="1.5" class="st0" width="2725" height="151"/>
		<path class="st1" d="M2725,3v148H3V3H2725 M2728,0H0v154h2728V0L2728,0z"/>
	</g>
	<g>
		<path class="st2" d="M1.5,152.5v-21.2c3.1,0.5,6.9,0.8,10.9,0.8c10.7,0,32.2-1.9,55.7-14.7c18.5-10.1,54.9-16.9,90.5-16.9
			c34.3,0,61.2,6.1,73.9,16.7c22.2,18.5,56.1,22.4,80.7,22.4c22.2,0,45.7-3.2,63-8.7c16-5,35.5-7.7,56.2-7.7
			c25.8,0,51.7,4.2,69.3,11.2c7.7,3.1,16.3,4.6,25.4,4.6c23.9,0,66.1-11.2,130.8-64.8c46.9-38.8,118.8-43,147.5-43
			c10.3,0,20.3,0.5,29.9,1.4c51,7.1,129.7,44.9,171.7,82.6c15.7,14.1,34.1,21.2,54.7,21.2c33.7,0,64.6-18.8,80.1-30.1l0.1-0.1
			c37.7-31.5,101.6-68.3,157.9-68.3c31.5,0,57.5,11.5,77,34.2c19.9,23.1,44.8,40.7,74,52.5c30.9,12.4,58.9,15,76.8,15
			c24.7,0,46.2-4.8,58.8-13.2l3.8-2.1c39.4-22,112.7-63,166.8-63c5.8,0,11.2,0.5,16.3,1.4c35.3,6.5,63.1,22.9,90,38.8
			c33.3,19.7,64.8,38.2,108.4,38.2c1.2,0,2.5,0,3.7,0c44.4-1.1,62.4-19.8,81.4-39.6c16.8-17.5,34.1-35.6,70.9-46.3
			c59.6-17.3,126.9-28.1,175.5-28.1c24.6,0,43.9,2.7,57.4,7.9c26,10.2,38.7,25.5,50.9,40.3c15,18.1,29.1,35.2,65.3,43.2
			c11.5,2.5,23.3,3.8,35,3.8c23.9,0,48.3-5.4,70.5-15.7c19.3-9,36.8-21.6,49.2-35.5c15.2-17.1,40.5-25.8,74.9-25.8
			c7.8,0,14.8,0.4,20.1,0.8v107.9H1.5z"/>
		<path class="st1" d="M2303.2,27c24.5,0,43.6,2.6,56.8,7.8c25.7,10.1,38.2,25.2,50.3,39.9c14.5,17.5,29.5,35.6,66.2,43.7
			c11.6,2.6,23.5,3.8,35.3,3.8c24.2,0,48.7-5.5,71.1-15.9c19.5-9,37.1-21.8,49.7-35.9c14.9-16.8,39.8-25.3,73.8-25.3
			c7.1,0,13.5,0.4,18.6,0.7v105H3v-18c2.8,0.4,6,0.5,9.4,0.5c10.9,0,32.6-1.9,56.5-14.9c18.3-10,54.4-16.7,89.8-16.7
			c33.9,0,60.5,6,72.9,16.3c22.5,18.8,56.9,22.8,81.7,22.8c22.3,0,46-3.3,63.4-8.7c15.9-5,35.2-7.6,55.7-7.6
			c25.6,0,51.3,4.1,68.7,11.1c7.9,3.1,16.6,4.7,25.9,4.7c19.4,0,42-6.9,67.1-20.4c20.1-10.8,41.8-25.9,64.7-44.8
			c17.9-14.8,41.4-26.1,69.6-33.4c23.5-6.1,50.1-9.3,76.9-9.3c10.2,0,20.2,0.5,29.7,1.4c24,3.3,56.2,14.1,88.5,29.6
			c33,15.8,62.2,34.5,82.4,52.6c16,14.3,34.7,21.6,55.7,21.6c34.1,0,65.4-19,81-30.4l0.1-0.1l0.1-0.1c37.5-31.4,101.1-68,156.9-68
			c31.1,0,56.6,11.3,75.9,33.7c20.1,23.3,45.2,41.1,74.6,52.9c31.1,12.5,59.3,15.1,77.4,15.1c25,0,46.7-4.9,59.6-13.5l3.8-2.1
			c39.3-22,112.3-62.8,166-62.8c5.7,0,11.1,0.5,16,1.4c35.1,6.5,62.7,22.8,89.5,38.6c33.5,19.8,65.2,38.4,109.1,38.4
			c1.2,0,2.5,0,3.8,0c45-1.1,63.2-20,82.4-40.1c16.6-17.3,33.8-35.3,70.2-45.8C2187.6,37.7,2254.7,27,2303.2,27 M2303.2,24
			c-52.4,0-121,12.2-175.9,28.1c-80.7,23.4-70.6,83.8-151.9,85.8c-1.2,0-2.5,0-3.7,0c-78.9,0-119.5-62.5-198.1-77
			c-5.3-1-10.8-1.4-16.5-1.4c-56.3,0-132.1,43.4-171.4,65.4c-11.8,7.9-32.9,13-58,13c-46.5,0-107-17.4-149.7-67
			c-21.7-25.1-49.2-34.7-78.2-34.7c-59.1,0-124.2,39.7-158.8,68.7c-19.7,14.3-49,29.8-79.2,29.8c-18.3,0-36.8-5.7-53.7-20.8
			c-42.3-37.9-121.8-75.9-172.5-82.9c-9.2-0.9-19.4-1.4-30.1-1.4C756.7,29.6,696.6,40.3,657,73c-39.3,32.5-88.5,64.5-129.9,64.5
			c-8.7,0-17-1.4-24.8-4.5c-17.3-6.9-43.1-11.3-69.8-11.3c-19.4,0-39.3,2.3-56.6,7.8c-15.1,4.8-38.3,8.6-62.5,8.6
			c-29.3,0-60.1-5.6-79.8-22.1c-14.2-11.9-43.8-17-74.8-17c-34.9,0-71.8,6.5-91.3,17c-21.1,11.5-41.5,14.6-55,14.6
			c-5.3,0-9.5-0.5-12.4-1.1V154h2728V43.5l-1-0.4c-5.5-0.4-12.6-0.9-20.6-0.9c-24.2,0-56.4,4.2-76.1,26.3
			c-23.2,26.1-67.1,50.7-118.5,50.7c-11.2,0-22.9-1.2-34.7-3.8c-65.9-14.5-58.5-60.8-116-83.4C2346.8,26.4,2326.6,24,2303.2,24
			L2303.2,24z"/>
	</g>
</g>
</svg>
